<?xml version="1.0" encoding="UTF-8" standalone="no"?>
<svg
   xmlns:dc="http://purl.org/dc/elements/1.1/"
   xmlns:cc="http://creativecommons.org/ns#"
   xmlns:rdf="http://www.w3.org/1999/02/22-rdf-syntax-ns#"
   xmlns:svg="http://www.w3.org/2000/svg"
   xmlns="http://www.w3.org/2000/svg"
   xmlns:sodipodi="http://sodipodi.sourceforge.net/DTD/sodipodi-0.dtd"
   xmlns:inkscape="http://www.inkscape.org/namespaces/inkscape"
   version="1.1"
   id="svg833"
   xml:space="preserve"
   width="120"
   height="40"
   viewBox="0 0 120 39.999999"
   sodipodi:docname="tecno.svg"
   inkscape:version="1.0.1 (3bc2e813f5, 2020-09-07)"><metadata
     id="metadata839"><rdf:RDF><cc:Work
         rdf:about=""><dc:format>image/svg+xml</dc:format><dc:type
           rdf:resource="http://purl.org/dc/dcmitype/StillImage" /><dc:title></dc:title></cc:Work></rdf:RDF></metadata><defs
     id="defs837" /><sodipodi:namedview
     pagecolor="#ffffff"
     bordercolor="#666666"
     borderopacity="1"
     objecttolerance="10"
     gridtolerance="10"
     guidetolerance="10"
     inkscape:pageopacity="0"
     inkscape:pageshadow="2"
     inkscape:window-width="2560"
     inkscape:window-height="1361"
     id="namedview835"
     showgrid="false"
     inkscape:zoom="0.89797992"
     inkscape:cx="396.85025"
     inkscape:cy="427.62649"
     inkscape:window-x="2551"
     inkscape:window-y="8"
     inkscape:window-maximized="1"
     inkscape:current-layer="g841" /><g
     id="g841"
     inkscape:groupmode="layer"
     inkscape:label="tecno-smartphone-seeklogo.com"
     transform="matrix(1.3333333,0,0,-1.3333333,632.66667,518.83333)"><g
       id="g858"
       transform="matrix(0.16777216,0,0,0.16777216,-399.7212,379.70687)"
       style="fill:#ffffff"><path
         d="M 41.47852,12.02637 H -6.55273 c -12.31446,0 -22.29688,-9.98242 -22.29688,-22.29688 v -46 c 0,-12.31445 9.98242,-22.29687 22.29688,-22.29687 h 48.03125 c 12.31445,0 22.29687,9.98242 22.29687,22.29687 v 46 c 0,12.31446 -9.98242,22.29688 -22.29687,22.29688 m -2.76563,-65.79688 c 0,-7.17969 -5.82031,-13 -13,-13 h -16.5 c -7.17969,0 -13,5.82031 -13,13 v 41 c 0,7.17969 5.82031,13 13,13 h 16.5 c 7.17969,0 13,-5.82031 13,-13 z"
         style="fill:#ffffff;fill-opacity:1;fill-rule:nonzero;stroke:none"
         id="path843" /><path
         d="m -185.63916,-0.04199 h 39.37256 c 0.55176,0 1,0.44775 1,1 v 10.06836 c 0,0.55224 -0.44824,1 -1,1 h -55.13819 c -12.31445,0 -22.29687,-9.98242 -22.29687,-22.29688 v -46 c 0,-12.31445 9.98242,-22.29687 22.29687,-22.29687 h 55.13819 c 0.55176,0 1,0.44726 1,1 v 10.06836 c 0,0.55175 -0.44824,1 -1,1 h -39.37256 c -7.17969,0 -13,5.77343 -13,12.8955 v 40.667 c 0,7.12158 5.82031,12.89453 13,12.89453 z"
         style="fill:#ffffff;fill-opacity:1;fill-rule:nonzero;stroke:none"
         id="path845" /><path
         d="m -63.50684,12.02637 h -68.92578 c -0.55176,0 -1,-0.44776 -1,-1 v -88.59375 c 0,-0.55274 0.44824,-1 1,-1 h 22.83301 c 0.55273,0 1,0.44726 1,1 v 77.52539 h 29.55664 c 7.17969,0 13,-5.82031 13,-13 v -64.52539 c 0,-0.55274 0.44824,-1 1,-1 h 22.83301 c 0.55273,0 1,0.44726 1,1 v 67.29687 c 0,12.31446 -9.98242,22.29688 -22.29688,22.29688 z"
         style="fill:#ffffff;fill-opacity:1;fill-rule:nonzero;stroke:none"
         id="path847" /><path
         d="m -327.43359,12.02637 h -90.33301 c -0.55225,0 -1,-0.44776 -1,-1 V 0.95801 c 0,-0.55225 0.44775,-1 1,-1 h 32.35986 v -77.52539 c 0,-0.55274 0.44776,-1 1,-1 h 22.83301 c 0.55225,0 1,0.44726 1,1 v 64.63086 c 0,7.12158 5.82031,12.89453 13,12.89453 h 20.14014 c 0.55224,0 1,0.44775 1,1 v 10.06836 c 0,0.55224 -0.44776,1 -1,1 z"
         style="fill:#ffffff;fill-opacity:1;fill-rule:nonzero;stroke:none"
         id="path849" /><path
         d="m -289.49414,-40.30469 c 0,0.55176 0.44775,1 1,1 h 51.56103 c 0.55225,0 1,0.44727 1,1 v 10.06836 c 0,0.55225 -0.44775,1 -1,1 h -39.56103 c -7.17969,0 -13,5.77295 -13,12.89453 v 1.40528 c 0,7.12158 5.82031,12.89453 13,12.89453 h 39.56103 c 0.55225,0 1,0.44775 1,1 v 10.06836 c 0,0.55224 -0.44775,1 -1,1 h -55.19384 c -12.31446,0 -22.29688,-9.98242 -22.29688,-22.29688 v -46 c 0,-12.31445 9.98242,-22.29687 22.29688,-22.29687 h 55.19384 c 0.55225,0 1,0.44726 1,1 v 10.06836 c 0,0.55175 -0.44775,1 -1,1 h -39.58056 c -7.17041,0.01074 -12.98047,5.77929 -12.98047,12.89355 z"
         style="fill:#ffffff;fill-opacity:1;fill-rule:nonzero;stroke:none"
         id="path851" /></g></g></svg>
